HIERARCHY
ROOT hip
{
	OFFSET 0.00 0.00 0.00
	CHANNELS 6  Xposition Yposition Zposition Xrotation Zrotation Yrotation
	JOINT abdomen
	{
		OFFSET 0.000000 3.402643 0.000000
			CHANNELS 3 Xrotation Zrotation Yrotation
		JOINT chest
		{
			OFFSET 0.000000 8.438565 -0.680529
				CHANNELS 3 Xrotation Zrotation Yrotation
			JOINT neck
			{
				OFFSET 0.000000 10.207942 -0.272212
					CHANNELS 3 Xrotation Zrotation Yrotation
				JOINT head
				{
					OFFSET 0.000000 3.130431 0.000000
						CHANNELS 3 Xrotation Zrotation Yrotation
					End Site
					{
						OFFSET 76813168775672648000000000000000.000000 267996529858680190000.000000 0.000000
					}
				}
			}
			JOINT lCollar
			{
				OFFSET 3.470700 6.669187 -0.816635
					CHANNELS 3 Yrotation Zrotation Xrotation
				JOINT lShldr
				{
					OFFSET 3.198488 0.000000 0.000000
						CHANNELS 3 Zrotation Yrotation Xrotation
					JOINT lForeArm
					{
						OFFSET 10.139888 0.000000 0.000000
							CHANNELS 3 Yrotation Zrotation Xrotation
						JOINT lHand
						{
							OFFSET 8.370511 0.000000 0.000000
								CHANNELS 3 Zrotation Yrotation Xrotation
							End Site
							{
								OFFSET 0.000000 0.000000 0.000000
							}
						}
					}
				}
			}
			JOINT rCollar
			{
				OFFSET -3.470700 6.669187 -0.816635
					CHANNELS 3 Yrotation Zrotation Xrotation
				JOINT rShldr
				{
					OFFSET -3.198488 0.000000 0.000000
						CHANNELS 3 Zrotation Yrotation Xrotation
					JOINT rForeArm
					{
						OFFSET -10.139888 0.000000 0.000000
							CHANNELS 3 Yrotation Zrotation Xrotation
						JOINT rHand
						{
							OFFSET -8.370511 0.000000 0.000000
								CHANNELS 3 Zrotation Yrotation Xrotation
							End Site
							{
								OFFSET 0.000000 4236769318351660400000000000000000.000000 2613291422931437800000000000000000.000000
							}
						}
					}
				}
			}
		}
	}
	JOINT lThigh
	{
		OFFSET 5.308129 -1.633274 1.361059
			CHANNELS 3 Xrotation Zrotation Yrotation
		JOINT lShin
		{
			OFFSET -2.041588 -20.007561 0.000000
				CHANNELS 3 Xrotation Zrotation Yrotation
			JOINT lFoot
			{
				OFFSET 0.000000 -19.190928 -1.224953
					CHANNELS 3 Xrotation Yrotation Zrotation
				End Site
				{
					OFFSET 0.000000 0.000000 -1.#QNAN0
				}
			}
		}
	}
	JOINT rThigh
	{
		OFFSET -5.308129 -1.633274 1.361059
			CHANNELS 3 Xrotation Zrotation Yrotation
		JOINT rShin
		{
			OFFSET 2.041588 -20.007561 0.000000
				CHANNELS 3 Xrotation Zrotation Yrotation
			JOINT rFoot
			{
				OFFSET 0.000000 -19.190928 -1.224953
					CHANNELS 3 Xrotation Yrotation Zrotation
				End Site
				{
					OFFSET 0.000000 0.000000 -1.#QNAN0
				}
			}
		}
	}
}
MOTION
Frames: 18
Frame Time: 0.032500
-0.380115 4.760417 -8.753814 -85.33 -0.47 -20.46 0.00 0.00 -0.00 -4.78 8.29 8.44 -29.81 -10.29 7.14 24.20 10.87 9.08 40.00 7.03 -8.25 -26.35 -6.88 -42.04 -49.94 28.09 68.93 -31.10 -13.61 -36.12 -21.18 -14.28 6.82 40.76 33.10 57.12 -57.12 -34.81 -8.70 24.28 7.36 -73.51 -54.24 39.14 22.60 134.05 22.39 6.51 15.41 -14.04 -13.84 -64.69 -22.68 -2.69 118.27 -1.34 4.03 35.58 -12.65 -7.74 
-0.380115 4.760417 -8.753814 -81.37 0.94 -19.04 0.00 0.00 -0.00 -8.95 7.43 8.24 -25.63 -9.75 6.49 25.96 9.76 7.88 37.16 4.10 -3.98 -25.73 -5.38 -41.48 -55.03 17.72 74.77 -27.74 -10.06 -40.08 -20.58 -12.82 7.82 40.82 27.14 57.34 -42.98 -41.16 -0.71 22.38 1.35 -74.18 -62.26 35.13 18.66 124.27 22.71 6.54 15.54 -15.45 -12.58 -66.93 -23.99 -2.91 114.61 0.70 4.27 35.58 -12.65 -7.74 
-0.380115 4.760417 -8.753814 -76.14 -0.31 -19.72 0.00 0.00 -0.00 -13.08 10.15 8.88 -22.78 -10.25 7.03 24.82 12.57 7.28 34.56 0.97 0.13 -25.10 -3.88 -40.91 -58.84 6.98 79.45 -24.67 -6.30 -43.79 -20.02 -11.35 8.80 40.84 21.19 57.54 -26.42 -45.63 9.96 20.54 -4.67 -74.64 -70.34 35.27 16.26 113.85 25.91 7.35 15.47 -18.48 -8.77 -67.26 -21.13 -2.12 110.56 3.93 4.78 35.58 -12.65 -7.74 
-0.380115 4.760417 -8.753814 -68.53 -2.82 -19.34 0.00 0.00 -0.00 -18.20 13.74 9.71 -22.62 -9.55 6.25 24.88 9.02 4.45 32.19 -2.33 4.09 -24.46 -2.39 -40.32 -61.75 -4.01 83.38 -21.86 -2.36 -47.28 -19.49 -9.87 9.77 40.85 15.23 57.74 -7.96 -47.55 22.68 18.72 -10.71 -74.91 -80.84 35.35 12.99 101.05 28.45 7.98 16.60 -20.09 -10.72 -67.87 -18.24 -1.32 104.47 9.49 5.65 35.58 -12.65 -7.74 
-0.380115 4.760417 -8.753814 -69.93 -3.82 -17.35 0.00 0.00 -0.00 -14.45 12.91 9.57 -19.20 -10.59 7.36 26.70 7.29 3.62 30.04 -5.78 7.94 -23.80 -0.91 -39.72 -63.97 -15.17 86.86 -19.30 1.74 -50.57 -18.98 -8.39 10.71 40.84 9.28 57.93 10.83 -46.57 35.74 16.88 -16.75 -74.99 -77.74 34.86 13.81 87.44 25.39 6.96 16.24 -21.33 -9.85 -61.47 -18.79 -1.85 97.69 11.34 5.71 35.58 -12.65 -7.74 
-0.380115 4.760417 -8.753814 -78.65 -2.56 -13.81 0.00 0.00 -0.00 -3.74 8.52 8.48 -9.71 -12.93 9.88 30.13 6.99 3.92 28.11 -9.38 11.67 -23.13 0.57 -39.09 -65.61 -26.43 90.14 -16.96 5.98 -53.69 -18.49 -6.90 11.64 40.81 3.32 58.12 28.12 -42.87 47.20 14.99 -22.79 -74.87 -63.54 32.90 17.49 75.01 17.33 4.70 13.45 -21.47 -7.32 -48.77 -23.72 -3.97 90.63 11.55 5.36 35.58 -12.65 -7.74 
-0.380115 4.760417 -8.753814 -87.60 1.35 -8.73 0.00 0.00 -0.00 6.45 3.04 6.96 10.29 -13.40 10.14 35.97 6.93 3.28 26.40 -13.08 15.34 -22.44 2.04 -38.46 -66.66 -37.77 93.43 -14.84 10.33 -56.66 -18.04 -5.39 12.55 40.76 -2.64 58.31 43.04 -37.06 56.09 12.97 -28.82 -74.51 -49.05 26.31 19.27 63.41 7.37 2.22 9.41 -20.57 -7.57 -34.86 -34.02 -8.09 84.63 15.76 5.97 35.58 -12.65 -7.74 
-0.380115 4.760417 -8.753814 -90.09 6.26 -4.54 0.00 0.00 -0.00 15.05 -1.19 5.64 26.46 -11.03 7.22 30.82 6.68 -0.20 24.92 -16.89 18.95 -21.73 3.50 -37.80 -66.92 -49.13 97.11 -12.92 14.79 -59.51 -17.61 -3.89 13.45 40.69 -8.59 58.51 55.71 -29.80 62.35 10.78 -34.84 -73.87 -45.01 16.65 17.35 53.26 2.09 0.92 6.38 -14.89 -21.18 -31.89 -41.46 -11.28 80.73 19.29 6.57 35.58 -12.65 -7.74 
-0.380115 4.760417 -8.753814 -60.79 7.06 -2.30 0.00 0.00 -0.00 -4.49 -0.20 6.46 26.60 -10.38 6.50 24.80 6.51 -2.84 16.29 -30.90 25.90 -16.19 28.35 -43.55 -79.85 -45.80 86.83 -5.96 19.57 -60.89 -13.66 5.71 18.84 34.82 -29.29 55.06 76.22 -43.04 72.98 9.41 -38.79 -72.18 -77.85 15.55 8.58 45.51 -0.93 0.15 10.89 -6.37 -25.75 -71.87 -33.75 -5.52 78.07 17.36 5.98 35.58 -12.65 -7.74 
-0.380115 4.760417 -8.753814 -29.87 5.41 -0.86 0.00 0.00 -0.00 0.37 -1.80 6.26 13.19 -9.81 6.09 24.13 6.13 -3.84 8.98 -31.22 25.73 -31.64 35.87 -44.81 -63.54 -34.10 99.47 9.23 24.73 -59.77 -12.89 7.95 19.82 40.51 -35.91 57.24 64.92 -50.54 65.51 -2.08 -45.17 -67.27 -108.02 15.12 -0.44 36.38 -1.39 -0.05 16.82 -0.25 -22.46 -104.89 -24.73 -0.85 69.56 18.11 5.70 35.58 -12.65 -7.74 
-0.380115 4.760417 -8.753814 -4.28 0.98 2.65 0.00 0.00 -0.00 5.24 -3.37 5.93 -2.59 -6.38 2.59 32.11 4.25 -4.90 3.83 -16.91 24.54 -48.16 24.58 -35.29 -39.03 -20.91 107.73 16.18 29.24 -57.75 -17.89 3.25 15.88 46.62 -28.98 60.98 36.61 -35.30 47.24 -10.57 -53.21 -57.61 -129.00 10.99 -7.07 30.77 -1.21 -0.06 18.61 2.25 -11.53 -127.95 -24.03 0.33 64.99 17.56 5.34 35.58 -12.65 -7.74 
-0.380115 4.760417 -8.753814 -5.41 2.03 0.94 0.00 0.00 -0.00 10.13 -4.91 5.46 -4.84 -7.60 3.93 35.57 4.34 -3.68 2.39 -12.24 24.67 -45.24 17.53 -34.45 -26.45 -22.77 105.58 14.19 24.22 -59.81 -16.98 1.57 15.77 47.31 -17.70 61.25 25.49 -22.40 42.92 -0.77 -48.58 -64.27 -122.73 13.03 -5.00 33.75 0.21 0.30 17.92 -0.73 -8.66 -123.98 -21.57 0.81 71.56 16.41 5.41 35.58 -12.65 -7.74 
-0.360918 4.970128 -8.447826 -19.47 6.05 -3.42 0.00 0.00 -0.00 15.04 -6.41 4.87 -2.54 -9.87 6.37 33.85 5.25 -0.12 1.67 -13.34 24.97 -37.69 17.23 -36.64 -23.63 -27.24 101.13 11.89 20.17 -61.21 -14.77 1.48 16.95 44.57 -14.83 60.93 25.34 -25.81 42.44 3.17 -45.72 -67.09 -105.67 18.18 0.96 39.98 1.91 0.74 17.51 -4.72 -8.39 -109.52 -17.28 1.27 80.88 13.99 5.36 35.58 -12.65 -7.74 
-0.341721 5.179839 -8.141841 -33.91 8.87 -8.68 0.00 0.00 -0.00 19.99 -7.85 4.14 0.40 -12.44 9.19 29.67 6.89 2.73 0.04 -11.70 25.79 -36.42 15.54 -36.49 -29.26 -26.27 95.13 9.95 18.19 -61.36 -12.57 1.43 18.14 41.85 -11.98 60.47 25.15 -29.22 41.93 6.72 -42.75 -69.51 -76.72 22.05 10.50 47.55 1.37 0.69 15.37 -6.71 -9.51 -102.29 -12.34 -1.88 89.94 6.17 4.12 35.58 -12.65 -7.74 
-0.326759 5.511434 -7.845323 -48.67 11.46 -10.90 0.00 0.00 -0.00 24.97 -9.22 3.29 1.18 -12.34 9.07 26.73 7.63 2.70 -1.60 -10.09 26.65 -35.18 13.85 -36.38 -34.70 -24.79 89.33 8.04 16.21 -61.44 -10.36 1.43 19.32 39.13 -9.15 59.88 24.92 -32.62 41.40 9.95 -39.69 -71.56 -61.27 21.82 16.42 53.41 -1.43 0.12 47.85 -6.71 0.23 -89.92 -12.14 -5.14 94.41 -2.55 2.46 35.58 -12.65 -7.74 
-0.318479 6.345065 -7.559256 -66.55 10.45 -10.71 0.00 0.00 -0.00 28.19 -8.55 3.19 0.30 -11.90 8.80 20.72 6.51 0.62 -3.25 -8.50 27.55 -33.94 12.16 -36.31 -39.88 -22.83 83.78 6.15 14.24 -61.45 -8.16 1.47 20.51 36.40 -6.36 59.16 24.64 -36.03 40.83 12.91 -36.54 -73.32 -45.57 18.66 17.77 63.94 -2.03 0.10 15.67 -8.60 -6.86 -60.26 -18.55 -1.86 71.50 7.20 8.66 13.65 -3.86 -3.48 
-0.304012 7.918766 -7.251821 -68.67 8.89 -10.09 0.00 0.00 -0.00 22.66 -6.48 4.03 -0.58 -11.46 8.53 14.77 5.18 -1.33 -4.93 -6.93 28.50 -39.04 16.31 -27.47 2.89 -13.91 87.80 5.38 15.20 -52.18 -5.95 1.56 21.69 32.68 -8.97 64.62 21.64 -18.26 56.41 11.18 -26.33 -74.65 -51.17 20.59 17.03 74.36 -1.40 0.35 18.33 -10.68 -3.08 -62.48 -16.44 -1.18 96.14 -2.82 2.50 13.98 -4.33 -3.87 
-0.288940 9.643067 -6.953137 -62.79 7.65 -9.48 0.00 0.00 -0.00 16.39 -4.77 4.78 -1.45 -11.03 8.25 8.88 3.66 -3.12 -6.62 -5.40 29.49 -43.54 21.17 -18.84 20.23 -21.62 61.53 4.79 16.27 -42.88 -3.75 1.69 22.87 28.70 -11.20 70.28 14.19 -1.85 72.06 9.33 -16.15 -76.20 -50.72 20.08 16.25 81.75 -0.21 0.70 21.21 -12.01 0.80 -64.80 -14.37 -0.53 95.19 -1.77 2.67 14.31 -4.81 -4.27 
